<?xml version="1.0" encoding="UTF-8" standalone="no"?>
<!-- Created with Inkscape (http://www.inkscape.org/) -->

<svg
   width="60"
   height="54"
   viewBox="0 0 15.875 14.2875"
   version="1.1"
   id="svg1"
   xmlns="http://www.w3.org/2000/svg"
   xmlns:svg="http://www.w3.org/2000/svg">
  <defs
     id="defs1">
    <clipPath
       clipPathUnits="userSpaceOnUse"
       id="clipPath1245">
      <path
         d="M 0,500 H 750 V 0 H 0 Z"
         transform="translate(-441.99121,-269.63771)"
         id="path1245" />
    </clipPath>
    <clipPath
       clipPathUnits="userSpaceOnUse"
       id="clipPath1247">
      <path
         d="M 0,500 H 750 V 0 H 0 Z"
         transform="translate(-441.14941,-270.2964)"
         id="path1247" />
    </clipPath>
    <clipPath
       clipPathUnits="userSpaceOnUse"
       id="clipPath1249">
      <path
         d="M 0,500 H 750 V 0 H 0 Z"
         transform="translate(-442.55471,-273.71871)"
         id="path1249" />
    </clipPath>
    <clipPath
       clipPathUnits="userSpaceOnUse"
       id="clipPath1251">
      <path
         d="M 0,500 H 750 V 0 H 0 Z"
         transform="translate(-446.23931,-266.7207)"
         id="path1251" />
    </clipPath>
    <clipPath
       clipPathUnits="userSpaceOnUse"
       id="clipPath1253">
      <path
         d="M 0,500 H 750 V 0 H 0 Z"
         transform="translate(-450.62701,-270.1353)"
         id="path1253" />
    </clipPath>
    <clipPath
       clipPathUnits="userSpaceOnUse"
       id="clipPath1255">
      <path
         d="M 0,500 H 750 V 0 H 0 Z"
         transform="translate(-448.11431,-271.75541)"
         id="path1255" />
    </clipPath>
    <clipPath
       clipPathUnits="userSpaceOnUse"
       id="clipPath1257">
      <path
         d="M 0,500 H 750 V 0 H 0 Z"
         transform="translate(-448.95801,-264.20411)"
         id="path1257" />
    </clipPath>
    <clipPath
       clipPathUnits="userSpaceOnUse"
       id="clipPath1259">
      <path
         d="M 0,500 H 750 V 0 H 0 Z"
         transform="translate(-444.27441,-268.20411)"
         id="path1259" />
    </clipPath>
    <clipPath
       clipPathUnits="userSpaceOnUse"
       id="clipPath1261">
      <path
         d="M 0,500 H 750 V 0 H 0 Z"
         transform="translate(-447.74121,-265.40871)"
         id="path1261" />
    </clipPath>
    <clipPath
       clipPathUnits="userSpaceOnUse"
       id="clipPath1263">
      <path
         d="M 0,500 H 750 V 0 H 0 Z"
         transform="translate(-451.28321,-261.4263)"
         id="path1263" />
    </clipPath>
    <clipPath
       clipPathUnits="userSpaceOnUse"
       id="clipPath1265">
      <path
         d="M 0,500 H 750 V 0 H 0 Z"
         transform="translate(-455.81251,-264.0825)"
         id="path1265" />
    </clipPath>
    <clipPath
       clipPathUnits="userSpaceOnUse"
       id="clipPath1267">
      <path
         d="M 0,500 H 750 V 0 H 0 Z"
         transform="translate(-459.35841,-257.39651)"
         id="path1267" />
    </clipPath>
    <clipPath
       clipPathUnits="userSpaceOnUse"
       id="clipPath1269">
      <path
         d="M 0,500 H 750 V 0 H 0 Z"
         transform="translate(-458.04491,-260.95311)"
         id="path1269" />
    </clipPath>
    <clipPath
       clipPathUnits="userSpaceOnUse"
       id="clipPath1271">
      <path
         d="M 0,500 H 750 V 0 H 0 Z"
         transform="translate(-457.29001,-262.60301)"
         id="path1271" />
    </clipPath>
    <clipPath
       clipPathUnits="userSpaceOnUse"
       id="clipPath1273">
      <path
         d="M 0,500 H 750 V 0 H 0 Z"
         transform="translate(-460.47661,-253.11911)"
         id="path1273" />
    </clipPath>
    <clipPath
       clipPathUnits="userSpaceOnUse"
       id="clipPath1275">
      <path
         d="M 0,500 H 750 V 0 H 0 Z"
         transform="translate(-459.06351,-258.62991)"
         id="path1275" />
    </clipPath>
    <clipPath
       clipPathUnits="userSpaceOnUse"
       id="clipPath1277">
      <path
         d="M 0,500 H 750 V 0 H 0 Z"
         transform="translate(-459.78911,-255.7095)"
         id="path1277" />
    </clipPath>
    <clipPath
       clipPathUnits="userSpaceOnUse"
       id="clipPath1279">
      <path
         d="M 0,500 H 750 V 0 H 0 Z"
         transform="translate(-458.30181,-250.5132)"
         id="path1279" />
    </clipPath>
    <clipPath
       clipPathUnits="userSpaceOnUse"
       id="clipPath1281">
      <path
         d="M 0,500 H 750 V 0 H 0 Z"
         transform="translate(-456.02831,-252.24461)"
         id="path1281" />
    </clipPath>
    <clipPath
       clipPathUnits="userSpaceOnUse"
       id="clipPath1283">
      <path
         d="M 0,500 H 750 V 0 H 0 Z"
         transform="translate(-460.63281,-252.3501)"
         id="path1283" />
    </clipPath>
    <clipPath
       clipPathUnits="userSpaceOnUse"
       id="clipPath1285">
      <path
         d="M 0,500 H 750 V 0 H 0 Z"
         transform="translate(-456.89361,-247.0977)"
         id="path1285" />
    </clipPath>
    <clipPath
       clipPathUnits="userSpaceOnUse"
       id="clipPath1287">
      <path
         d="M 0,500 H 750 V 0 H 0 Z"
         transform="translate(-459.97361,-248.3799)"
         id="path1287" />
    </clipPath>
    <clipPath
       clipPathUnits="userSpaceOnUse"
       id="clipPath1289">
      <path
         d="M 0,500 H 750 V 0 H 0 Z"
         transform="translate(-456.98341,-243.6738)"
         id="path1289" />
    </clipPath>
    <clipPath
       clipPathUnits="userSpaceOnUse"
       id="clipPath1291">
      <path
         d="M 0,500 H 750 V 0 H 0 Z"
         transform="translate(-457.68461,-248.43261)"
         id="path1291" />
    </clipPath>
    <clipPath
       clipPathUnits="userSpaceOnUse"
       id="clipPath1293">
      <path
         d="M 0,500 H 750 V 0 H 0 Z"
         transform="translate(-456.32421,-245.70311)"
         id="path1293" />
    </clipPath>
    <clipPath
       clipPathUnits="userSpaceOnUse"
       id="clipPath1295">
      <path
         d="M 0,500 H 750 V 0 H 0 Z"
         transform="translate(-456.36621,-238.72661)"
         id="path1295" />
    </clipPath>
    <clipPath
       clipPathUnits="userSpaceOnUse"
       id="clipPath1297">
      <path
         d="M 0,500 H 750 V 0 H 0 Z"
         transform="translate(-455.61431,-241.1943)"
         id="path1297" />
    </clipPath>
    <clipPath
       clipPathUnits="userSpaceOnUse"
       id="clipPath1299">
      <path
         d="M 0,500 H 750 V 0 H 0 Z"
         transform="translate(-456.54981,-242.18361)"
         id="path1299" />
    </clipPath>
    <clipPath
       clipPathUnits="userSpaceOnUse"
       id="clipPath1301">
      <path
         d="M 0,500 H 750 V 0 H 0 Z"
         transform="translate(-453.41411,-236.71581)"
         id="path1301" />
    </clipPath>
    <clipPath
       clipPathUnits="userSpaceOnUse"
       id="clipPath1303">
      <path
         d="M 0,500 H 750 V 0 H 0 Z"
         transform="translate(-456.62701,-236.15621)"
         id="path1303" />
    </clipPath>
    <clipPath
       clipPathUnits="userSpaceOnUse"
       id="clipPath1305">
      <path
         d="M 0,500 H 750 V 0 H 0 Z"
         transform="translate(-452.02051,-235.4619)"
         id="path1305" />
    </clipPath>
    <clipPath
       clipPathUnits="userSpaceOnUse"
       id="clipPath1307">
      <path
         d="M 0,500 H 750 V 0 H 0 Z"
         transform="translate(-454.77051,-237.31451)"
         id="path1307" />
    </clipPath>
    <clipPath
       clipPathUnits="userSpaceOnUse"
       id="clipPath1309">
      <path
         d="M 0,500 H 750 V 0 H 0 Z"
         transform="translate(-453.54201,-233.43651)"
         id="path1309" />
    </clipPath>
    <clipPath
       clipPathUnits="userSpaceOnUse"
       id="clipPath1311">
      <path
         d="M 0,500 H 750 V 0 H 0 Z"
         transform="translate(-449.87991,-233.96291)"
         id="path1311" />
    </clipPath>
    <clipPath
       clipPathUnits="userSpaceOnUse"
       id="clipPath1313">
      <path
         d="M 0,500 H 750 V 0 H 0 Z"
         transform="translate(-450.33011,-229.80371)"
         id="path1313" />
    </clipPath>
    <clipPath
       clipPathUnits="userSpaceOnUse"
       id="clipPath1315">
      <path
         d="M 0,500 H 750 V 0 H 0 Z"
         transform="translate(-447.19241,-231.57911)"
         id="path1315" />
    </clipPath>
    <clipPath
       clipPathUnits="userSpaceOnUse"
       id="clipPath1317">
      <path
         d="M 0,500 H 750 V 0 H 0 Z"
         transform="translate(-444.63381,-229.24901)"
         id="path1317" />
    </clipPath>
    <clipPath
       clipPathUnits="userSpaceOnUse"
       id="clipPath1319">
      <path
         d="M 0,500 H 750 V 0 H 0 Z"
         transform="translate(-406.43651,-248.9541)"
         id="path1319" />
    </clipPath>
    <clipPath
       clipPathUnits="userSpaceOnUse"
       id="clipPath1321">
      <path
         d="M 0,500 H 750 V 0 H 0 Z"
         transform="translate(-459.01461,-249.12791)"
         id="path1321" />
    </clipPath>
    <clipPath
       clipPathUnits="userSpaceOnUse"
       id="clipPath1323">
      <path
         d="M 0,500 H 750 V 0 H 0 Z"
         transform="translate(-402.05571,-261.38621)"
         id="path1323" />
    </clipPath>
    <clipPath
       clipPathUnits="userSpaceOnUse"
       id="clipPath1325">
      <path
         d="M 0,500 H 750 V 0 H 0 Z"
         transform="translate(-473.40921,-249.48581)"
         id="path1325" />
    </clipPath>
    <clipPath
       clipPathUnits="userSpaceOnUse"
       id="clipPath1245-1">
      <path
         d="M 0,500 H 750 V 0 H 0 Z"
         transform="translate(-441.99121,-269.63771)"
         id="path1245-5" />
    </clipPath>
    <clipPath
       clipPathUnits="userSpaceOnUse"
       id="clipPath1247-2">
      <path
         d="M 0,500 H 750 V 0 H 0 Z"
         transform="translate(-441.14941,-270.2964)"
         id="path1247-1" />
    </clipPath>
    <clipPath
       clipPathUnits="userSpaceOnUse"
       id="clipPath1249-1">
      <path
         d="M 0,500 H 750 V 0 H 0 Z"
         transform="translate(-442.55471,-273.71871)"
         id="path1249-0" />
    </clipPath>
    <clipPath
       clipPathUnits="userSpaceOnUse"
       id="clipPath1251-1">
      <path
         d="M 0,500 H 750 V 0 H 0 Z"
         transform="translate(-446.23931,-266.7207)"
         id="path1251-8" />
    </clipPath>
    <clipPath
       clipPathUnits="userSpaceOnUse"
       id="clipPath1253-7">
      <path
         d="M 0,500 H 750 V 0 H 0 Z"
         transform="translate(-450.62701,-270.1353)"
         id="path1253-6" />
    </clipPath>
    <clipPath
       clipPathUnits="userSpaceOnUse"
       id="clipPath1255-0">
      <path
         d="M 0,500 H 750 V 0 H 0 Z"
         transform="translate(-448.11431,-271.75541)"
         id="path1255-0" />
    </clipPath>
    <clipPath
       clipPathUnits="userSpaceOnUse"
       id="clipPath1257-9">
      <path
         d="M 0,500 H 750 V 0 H 0 Z"
         transform="translate(-448.95801,-264.20411)"
         id="path1257-5" />
    </clipPath>
    <clipPath
       clipPathUnits="userSpaceOnUse"
       id="clipPath1259-6">
      <path
         d="M 0,500 H 750 V 0 H 0 Z"
         transform="translate(-444.27441,-268.20411)"
         id="path1259-2" />
    </clipPath>
    <clipPath
       clipPathUnits="userSpaceOnUse"
       id="clipPath1261-8">
      <path
         d="M 0,500 H 750 V 0 H 0 Z"
         transform="translate(-447.74121,-265.40871)"
         id="path1261-5" />
    </clipPath>
    <clipPath
       clipPathUnits="userSpaceOnUse"
       id="clipPath1263-9">
      <path
         d="M 0,500 H 750 V 0 H 0 Z"
         transform="translate(-451.28321,-261.4263)"
         id="path1263-4" />
    </clipPath>
    <clipPath
       clipPathUnits="userSpaceOnUse"
       id="clipPath1265-3">
      <path
         d="M 0,500 H 750 V 0 H 0 Z"
         transform="translate(-455.81251,-264.0825)"
         id="path1265-9" />
    </clipPath>
    <clipPath
       clipPathUnits="userSpaceOnUse"
       id="clipPath1267-0">
      <path
         d="M 0,500 H 750 V 0 H 0 Z"
         transform="translate(-459.35841,-257.39651)"
         id="path1267-5" />
    </clipPath>
    <clipPath
       clipPathUnits="userSpaceOnUse"
       id="clipPath1269-6">
      <path
         d="M 0,500 H 750 V 0 H 0 Z"
         transform="translate(-458.04491,-260.95311)"
         id="path1269-3" />
    </clipPath>
    <clipPath
       clipPathUnits="userSpaceOnUse"
       id="clipPath1271-6">
      <path
         d="M 0,500 H 750 V 0 H 0 Z"
         transform="translate(-457.29001,-262.60301)"
         id="path1271-3" />
    </clipPath>
    <clipPath
       clipPathUnits="userSpaceOnUse"
       id="clipPath1273-0">
      <path
         d="M 0,500 H 750 V 0 H 0 Z"
         transform="translate(-460.47661,-253.11911)"
         id="path1273-8" />
    </clipPath>
    <clipPath
       clipPathUnits="userSpaceOnUse"
       id="clipPath1275-4">
      <path
         d="M 0,500 H 750 V 0 H 0 Z"
         transform="translate(-459.06351,-258.62991)"
         id="path1275-0" />
    </clipPath>
    <clipPath
       clipPathUnits="userSpaceOnUse"
       id="clipPath1277-4">
      <path
         d="M 0,500 H 750 V 0 H 0 Z"
         transform="translate(-459.78911,-255.7095)"
         id="path1277-6" />
    </clipPath>
    <clipPath
       clipPathUnits="userSpaceOnUse"
       id="clipPath1279-4">
      <path
         d="M 0,500 H 750 V 0 H 0 Z"
         transform="translate(-458.30181,-250.5132)"
         id="path1279-6" />
    </clipPath>
    <clipPath
       clipPathUnits="userSpaceOnUse"
       id="clipPath1281-4">
      <path
         d="M 0,500 H 750 V 0 H 0 Z"
         transform="translate(-456.02831,-252.24461)"
         id="path1281-3" />
    </clipPath>
    <clipPath
       clipPathUnits="userSpaceOnUse"
       id="clipPath1283-8">
      <path
         d="M 0,500 H 750 V 0 H 0 Z"
         transform="translate(-460.63281,-252.3501)"
         id="path1283-4" />
    </clipPath>
    <clipPath
       clipPathUnits="userSpaceOnUse"
       id="clipPath1285-0">
      <path
         d="M 0,500 H 750 V 0 H 0 Z"
         transform="translate(-456.89361,-247.0977)"
         id="path1285-0" />
    </clipPath>
    <clipPath
       clipPathUnits="userSpaceOnUse"
       id="clipPath1287-9">
      <path
         d="M 0,500 H 750 V 0 H 0 Z"
         transform="translate(-459.97361,-248.3799)"
         id="path1287-3" />
    </clipPath>
    <clipPath
       clipPathUnits="userSpaceOnUse"
       id="clipPath1289-7">
      <path
         d="M 0,500 H 750 V 0 H 0 Z"
         transform="translate(-456.98341,-243.6738)"
         id="path1289-5" />
    </clipPath>
    <clipPath
       clipPathUnits="userSpaceOnUse"
       id="clipPath1291-7">
      <path
         d="M 0,500 H 750 V 0 H 0 Z"
         transform="translate(-457.68461,-248.43261)"
         id="path1291-2" />
    </clipPath>
    <clipPath
       clipPathUnits="userSpaceOnUse"
       id="clipPath1293-9">
      <path
         d="M 0,500 H 750 V 0 H 0 Z"
         transform="translate(-456.32421,-245.70311)"
         id="path1293-7" />
    </clipPath>
    <clipPath
       clipPathUnits="userSpaceOnUse"
       id="clipPath1295-5">
      <path
         d="M 0,500 H 750 V 0 H 0 Z"
         transform="translate(-456.36621,-238.72661)"
         id="path1295-6" />
    </clipPath>
    <clipPath
       clipPathUnits="userSpaceOnUse"
       id="clipPath1297-5">
      <path
         d="M 0,500 H 750 V 0 H 0 Z"
         transform="translate(-455.61431,-241.1943)"
         id="path1297-3" />
    </clipPath>
    <clipPath
       clipPathUnits="userSpaceOnUse"
       id="clipPath1299-0">
      <path
         d="M 0,500 H 750 V 0 H 0 Z"
         transform="translate(-456.54981,-242.18361)"
         id="path1299-4" />
    </clipPath>
    <clipPath
       clipPathUnits="userSpaceOnUse"
       id="clipPath1301-8">
      <path
         d="M 0,500 H 750 V 0 H 0 Z"
         transform="translate(-453.41411,-236.71581)"
         id="path1301-5" />
    </clipPath>
    <clipPath
       clipPathUnits="userSpaceOnUse"
       id="clipPath1303-5">
      <path
         d="M 0,500 H 750 V 0 H 0 Z"
         transform="translate(-456.62701,-236.15621)"
         id="path1303-5" />
    </clipPath>
    <clipPath
       clipPathUnits="userSpaceOnUse"
       id="clipPath1305-4">
      <path
         d="M 0,500 H 750 V 0 H 0 Z"
         transform="translate(-452.02051,-235.4619)"
         id="path1305-2" />
    </clipPath>
    <clipPath
       clipPathUnits="userSpaceOnUse"
       id="clipPath1307-1">
      <path
         d="M 0,500 H 750 V 0 H 0 Z"
         transform="translate(-454.77051,-237.31451)"
         id="path1307-9" />
    </clipPath>
    <clipPath
       clipPathUnits="userSpaceOnUse"
       id="clipPath1309-2">
      <path
         d="M 0,500 H 750 V 0 H 0 Z"
         transform="translate(-453.54201,-233.43651)"
         id="path1309-4" />
    </clipPath>
    <clipPath
       clipPathUnits="userSpaceOnUse"
       id="clipPath1311-5">
      <path
         d="M 0,500 H 750 V 0 H 0 Z"
         transform="translate(-449.87991,-233.96291)"
         id="path1311-8" />
    </clipPath>
    <clipPath
       clipPathUnits="userSpaceOnUse"
       id="clipPath1313-6">
      <path
         d="M 0,500 H 750 V 0 H 0 Z"
         transform="translate(-450.33011,-229.80371)"
         id="path1313-2" />
    </clipPath>
    <clipPath
       clipPathUnits="userSpaceOnUse"
       id="clipPath1315-5">
      <path
         d="M 0,500 H 750 V 0 H 0 Z"
         transform="translate(-447.19241,-231.57911)"
         id="path1315-1" />
    </clipPath>
    <clipPath
       clipPathUnits="userSpaceOnUse"
       id="clipPath1317-3">
      <path
         d="M 0,500 H 750 V 0 H 0 Z"
         transform="translate(-444.63381,-229.24901)"
         id="path1317-9" />
    </clipPath>
    <clipPath
       clipPathUnits="userSpaceOnUse"
       id="clipPath1319-7">
      <path
         d="M 0,500 H 750 V 0 H 0 Z"
         transform="translate(-406.43651,-248.9541)"
         id="path1319-3" />
    </clipPath>
    <clipPath
       clipPathUnits="userSpaceOnUse"
       id="clipPath1321-7">
      <path
         d="M 0,500 H 750 V 0 H 0 Z"
         transform="translate(-459.01461,-249.12791)"
         id="path1321-5" />
    </clipPath>
    <clipPath
       clipPathUnits="userSpaceOnUse"
       id="clipPath1323-0">
      <path
         d="M 0,500 H 750 V 0 H 0 Z"
         transform="translate(-402.05571,-261.38621)"
         id="path1323-2" />
    </clipPath>
    <clipPath
       clipPathUnits="userSpaceOnUse"
       id="clipPath1325-1">
      <path
         d="M 0,500 H 750 V 0 H 0 Z"
         transform="translate(-473.40921,-249.48581)"
         id="path1325-8" />
    </clipPath>
    <clipPath
       clipPathUnits="userSpaceOnUse"
       id="clipPath1245-1-2">
      <path
         d="M 0,500 H 750 V 0 H 0 Z"
         transform="translate(-441.99121,-269.63771)"
         id="path1245-5-0" />
    </clipPath>
    <clipPath
       clipPathUnits="userSpaceOnUse"
       id="clipPath1247-2-4">
      <path
         d="M 0,500 H 750 V 0 H 0 Z"
         transform="translate(-441.14941,-270.2964)"
         id="path1247-1-4" />
    </clipPath>
    <clipPath
       clipPathUnits="userSpaceOnUse"
       id="clipPath1249-1-5">
      <path
         d="M 0,500 H 750 V 0 H 0 Z"
         transform="translate(-442.55471,-273.71871)"
         id="path1249-0-9" />
    </clipPath>
    <clipPath
       clipPathUnits="userSpaceOnUse"
       id="clipPath1251-1-7">
      <path
         d="M 0,500 H 750 V 0 H 0 Z"
         transform="translate(-446.23931,-266.7207)"
         id="path1251-8-5" />
    </clipPath>
    <clipPath
       clipPathUnits="userSpaceOnUse"
       id="clipPath1253-7-3">
      <path
         d="M 0,500 H 750 V 0 H 0 Z"
         transform="translate(-450.62701,-270.1353)"
         id="path1253-6-9" />
    </clipPath>
    <clipPath
       clipPathUnits="userSpaceOnUse"
       id="clipPath1255-0-0">
      <path
         d="M 0,500 H 750 V 0 H 0 Z"
         transform="translate(-448.11431,-271.75541)"
         id="path1255-0-5" />
    </clipPath>
    <clipPath
       clipPathUnits="userSpaceOnUse"
       id="clipPath1257-9-5">
      <path
         d="M 0,500 H 750 V 0 H 0 Z"
         transform="translate(-448.95801,-264.20411)"
         id="path1257-5-6" />
    </clipPath>
    <clipPath
       clipPathUnits="userSpaceOnUse"
       id="clipPath1259-6-3">
      <path
         d="M 0,500 H 750 V 0 H 0 Z"
         transform="translate(-444.27441,-268.20411)"
         id="path1259-2-2" />
    </clipPath>
    <clipPath
       clipPathUnits="userSpaceOnUse"
       id="clipPath1261-8-6">
      <path
         d="M 0,500 H 750 V 0 H 0 Z"
         transform="translate(-447.74121,-265.40871)"
         id="path1261-5-8" />
    </clipPath>
    <clipPath
       clipPathUnits="userSpaceOnUse"
       id="clipPath1263-9-9">
      <path
         d="M 0,500 H 750 V 0 H 0 Z"
         transform="translate(-451.28321,-261.4263)"
         id="path1263-4-1" />
    </clipPath>
    <clipPath
       clipPathUnits="userSpaceOnUse"
       id="clipPath1265-3-4">
      <path
         d="M 0,500 H 750 V 0 H 0 Z"
         transform="translate(-455.81251,-264.0825)"
         id="path1265-9-8" />
    </clipPath>
    <clipPath
       clipPathUnits="userSpaceOnUse"
       id="clipPath1267-0-8">
      <path
         d="M 0,500 H 750 V 0 H 0 Z"
         transform="translate(-459.35841,-257.39651)"
         id="path1267-5-7" />
    </clipPath>
    <clipPath
       clipPathUnits="userSpaceOnUse"
       id="clipPath1269-6-1">
      <path
         d="M 0,500 H 750 V 0 H 0 Z"
         transform="translate(-458.04491,-260.95311)"
         id="path1269-3-9" />
    </clipPath>
    <clipPath
       clipPathUnits="userSpaceOnUse"
       id="clipPath1271-6-3">
      <path
         d="M 0,500 H 750 V 0 H 0 Z"
         transform="translate(-457.29001,-262.60301)"
         id="path1271-3-1" />
    </clipPath>
    <clipPath
       clipPathUnits="userSpaceOnUse"
       id="clipPath1273-0-1">
      <path
         d="M 0,500 H 750 V 0 H 0 Z"
         transform="translate(-460.47661,-253.11911)"
         id="path1273-8-4" />
    </clipPath>
    <clipPath
       clipPathUnits="userSpaceOnUse"
       id="clipPath1275-4-9">
      <path
         d="M 0,500 H 750 V 0 H 0 Z"
         transform="translate(-459.06351,-258.62991)"
         id="path1275-0-5" />
    </clipPath>
    <clipPath
       clipPathUnits="userSpaceOnUse"
       id="clipPath1277-4-9">
      <path
         d="M 0,500 H 750 V 0 H 0 Z"
         transform="translate(-459.78911,-255.7095)"
         id="path1277-6-0" />
    </clipPath>
    <clipPath
       clipPathUnits="userSpaceOnUse"
       id="clipPath1279-4-9">
      <path
         d="M 0,500 H 750 V 0 H 0 Z"
         transform="translate(-458.30181,-250.5132)"
         id="path1279-6-3" />
    </clipPath>
    <clipPath
       clipPathUnits="userSpaceOnUse"
       id="clipPath1281-4-4">
      <path
         d="M 0,500 H 750 V 0 H 0 Z"
         transform="translate(-456.02831,-252.24461)"
         id="path1281-3-0" />
    </clipPath>
    <clipPath
       clipPathUnits="userSpaceOnUse"
       id="clipPath1283-8-7">
      <path
         d="M 0,500 H 750 V 0 H 0 Z"
         transform="translate(-460.63281,-252.3501)"
         id="path1283-4-5" />
    </clipPath>
    <clipPath
       clipPathUnits="userSpaceOnUse"
       id="clipPath1285-0-7">
      <path
         d="M 0,500 H 750 V 0 H 0 Z"
         transform="translate(-456.89361,-247.0977)"
         id="path1285-0-5" />
    </clipPath>
    <clipPath
       clipPathUnits="userSpaceOnUse"
       id="clipPath1287-9-0">
      <path
         d="M 0,500 H 750 V 0 H 0 Z"
         transform="translate(-459.97361,-248.3799)"
         id="path1287-3-6" />
    </clipPath>
    <clipPath
       clipPathUnits="userSpaceOnUse"
       id="clipPath1289-7-4">
      <path
         d="M 0,500 H 750 V 0 H 0 Z"
         transform="translate(-456.98341,-243.6738)"
         id="path1289-5-7" />
    </clipPath>
    <clipPath
       clipPathUnits="userSpaceOnUse"
       id="clipPath1291-7-8">
      <path
         d="M 0,500 H 750 V 0 H 0 Z"
         transform="translate(-457.68461,-248.43261)"
         id="path1291-2-4" />
    </clipPath>
    <clipPath
       clipPathUnits="userSpaceOnUse"
       id="clipPath1293-9-0">
      <path
         d="M 0,500 H 750 V 0 H 0 Z"
         transform="translate(-456.32421,-245.70311)"
         id="path1293-7-0" />
    </clipPath>
    <clipPath
       clipPathUnits="userSpaceOnUse"
       id="clipPath1295-5-6">
      <path
         d="M 0,500 H 750 V 0 H 0 Z"
         transform="translate(-456.36621,-238.72661)"
         id="path1295-6-2" />
    </clipPath>
    <clipPath
       clipPathUnits="userSpaceOnUse"
       id="clipPath1297-5-4">
      <path
         d="M 0,500 H 750 V 0 H 0 Z"
         transform="translate(-455.61431,-241.1943)"
         id="path1297-3-7" />
    </clipPath>
    <clipPath
       clipPathUnits="userSpaceOnUse"
       id="clipPath1299-0-4">
      <path
         d="M 0,500 H 750 V 0 H 0 Z"
         transform="translate(-456.54981,-242.18361)"
         id="path1299-4-1" />
    </clipPath>
    <clipPath
       clipPathUnits="userSpaceOnUse"
       id="clipPath1301-8-8">
      <path
         d="M 0,500 H 750 V 0 H 0 Z"
         transform="translate(-453.41411,-236.71581)"
         id="path1301-5-5" />
    </clipPath>
    <clipPath
       clipPathUnits="userSpaceOnUse"
       id="clipPath1303-5-8">
      <path
         d="M 0,500 H 750 V 0 H 0 Z"
         transform="translate(-456.62701,-236.15621)"
         id="path1303-5-9" />
    </clipPath>
    <clipPath
       clipPathUnits="userSpaceOnUse"
       id="clipPath1305-4-9">
      <path
         d="M 0,500 H 750 V 0 H 0 Z"
         transform="translate(-452.02051,-235.4619)"
         id="path1305-2-9" />
    </clipPath>
    <clipPath
       clipPathUnits="userSpaceOnUse"
       id="clipPath1307-1-3">
      <path
         d="M 0,500 H 750 V 0 H 0 Z"
         transform="translate(-454.77051,-237.31451)"
         id="path1307-9-3" />
    </clipPath>
    <clipPath
       clipPathUnits="userSpaceOnUse"
       id="clipPath1309-2-7">
      <path
         d="M 0,500 H 750 V 0 H 0 Z"
         transform="translate(-453.54201,-233.43651)"
         id="path1309-4-7" />
    </clipPath>
    <clipPath
       clipPathUnits="userSpaceOnUse"
       id="clipPath1311-5-3">
      <path
         d="M 0,500 H 750 V 0 H 0 Z"
         transform="translate(-449.87991,-233.96291)"
         id="path1311-8-2" />
    </clipPath>
    <clipPath
       clipPathUnits="userSpaceOnUse"
       id="clipPath1313-6-5">
      <path
         d="M 0,500 H 750 V 0 H 0 Z"
         transform="translate(-450.33011,-229.80371)"
         id="path1313-2-6" />
    </clipPath>
    <clipPath
       clipPathUnits="userSpaceOnUse"
       id="clipPath1315-5-3">
      <path
         d="M 0,500 H 750 V 0 H 0 Z"
         transform="translate(-447.19241,-231.57911)"
         id="path1315-1-4" />
    </clipPath>
    <clipPath
       clipPathUnits="userSpaceOnUse"
       id="clipPath1317-3-0">
      <path
         d="M 0,500 H 750 V 0 H 0 Z"
         transform="translate(-444.63381,-229.24901)"
         id="path1317-9-6" />
    </clipPath>
    <clipPath
       clipPathUnits="userSpaceOnUse"
       id="clipPath1319-7-0">
      <path
         d="M 0,500 H 750 V 0 H 0 Z"
         transform="translate(-406.43651,-248.9541)"
         id="path1319-3-4" />
    </clipPath>
    <clipPath
       clipPathUnits="userSpaceOnUse"
       id="clipPath1321-7-0">
      <path
         d="M 0,500 H 750 V 0 H 0 Z"
         transform="translate(-459.01461,-249.12791)"
         id="path1321-5-5" />
    </clipPath>
    <clipPath
       clipPathUnits="userSpaceOnUse"
       id="clipPath1323-0-6">
      <path
         d="M 0,500 H 750 V 0 H 0 Z"
         transform="translate(-402.05571,-261.38621)"
         id="path1323-2-8" />
    </clipPath>
    <clipPath
       clipPathUnits="userSpaceOnUse"
       id="clipPath1325-1-5">
      <path
         d="M 0,500 H 750 V 0 H 0 Z"
         transform="translate(-473.40921,-249.48581)"
         id="path1325-8-3" />
    </clipPath>
  </defs>
  <path
     id="path1244"
     d="M 0,0 C 0.042,-0.024 0.083,-0.051 0.125,-0.075 0.362,0.102 0.605,0.268 0.864,0.426 1.242,0.655 1.646,0.9 2.063,1.046 2.324,1.143 2.596,1.22 2.874,1.292 L 3.436,2.128 3.261,2.084 C 2.945,2.001 2.646,1.874 2.349,1.785 1.516,1.511 0.751,1.21 0.058,0.786 -0.072,0.709 -0.212,0.677 -0.33,0.587 -0.393,0.539 -0.447,0.47 -0.5,0.399 -0.332,0.268 -0.164,0.136 0,0"
     style="fill:#d6d1bf;fill-opacity:1;fill-rule:nonzero;stroke:none"
     transform="matrix(0.142008,0,0,-0.15470703,8.2777146,3.478828)"
     clip-path="url(#clipPath1245-1-2)" />
  <path
     id="path1246"
     d="M 0,0 C 0.174,0.159 0.416,0.35 0.676,0.509 1.003,0.699 1.328,0.887 1.55,1.015 2.036,1.325 2.533,1.534 3.085,1.755 3.393,1.888 4.099,2.103 4.713,2.254 4.33,2.387 3.949,2.525 3.567,2.658 3.19,2.552 2.851,2.441 2.687,2.387 2.229,2.246 1.781,1.996 1.378,1.77 1.089,1.615 0.666,1.392 0.285,1.135 -0.062,0.909 -0.365,0.663 -0.565,0.409 -0.374,0.276 -0.187,0.14 0,0"
     style="fill:#d6d1bf;fill-opacity:1;fill-rule:nonzero;stroke:none"
     transform="matrix(0.142008,0,0,-0.15470703,8.1581741,3.3769253)"
     clip-path="url(#clipPath1247-2-4)" />
  <path
     id="path1248"
     d="M 0,0 C -0.081,-0.027 -0.163,-0.052 -0.241,-0.088 -0.252,-0.092 -0.263,-0.097 -0.273,-0.1 -0.289,-0.107 -0.306,-0.109 -0.321,-0.117 -0.629,-0.268 -0.92,-0.431 -1.192,-0.603 c -0.255,-0.173 -0.548,-0.341 -0.734,-0.58 -0.069,-0.089 -0.122,-0.196 -0.136,-0.312 -0.013,-0.116 0.016,-0.239 0.086,-0.311 0.155,-0.156 0.31,0.045 0.448,0.166 0.178,0.158 0.361,0.284 0.557,0.416 0.465,0.307 0.994,0.579 1.525,0.802 0.073,0.03 0.178,0.074 0.297,0.122 C 0.567,-0.2 0.282,-0.103 0,0"
     style="fill:#d6d1bf;fill-opacity:1;fill-rule:nonzero;stroke:none"
     transform="matrix(0.142008,0,0,-0.15470703,8.357735,2.8474717)"
     clip-path="url(#clipPath1249-1-5)" />
  <path
     id="path1250"
     d="M 0,0 C 0.116,0.016 0.234,0.029 0.339,0.044 0.7,0.102 1.063,0.079 1.43,0.112 1.885,0.152 2.348,0.229 2.807,0.243 3.333,0.26 3.86,0.221 4.387,0.226 5.128,0.229 5.867,0.232 6.594,0.319 6.793,0.337 7.23,0.397 7.417,0.404 7.479,0.406 7.538,0.417 7.598,0.427 7.426,0.602 7.255,0.778 7.08,0.951 6.876,0.938 6.657,0.918 6.528,0.922 6.162,0.932 5.781,0.898 5.403,0.901 4.789,0.91 4.183,0.918 3.567,0.926 3.163,0.928 2.756,0.901 2.351,0.889 1.992,0.883 1.642,0.877 1.284,0.871 0.915,0.854 0.55,0.843 0.189,0.79 -0.114,0.749 -0.421,0.676 -0.712,0.565 -0.472,0.38 -0.235,0.191 0,0"
     style="fill:#d6d1bf;fill-opacity:1;fill-rule:nonzero;stroke:none"
     transform="matrix(0.142008,0,0,-0.15470703,8.8809801,3.9301126)"
     clip-path="url(#clipPath1251-1-7)" />
  <path
     id="path1252"
     d="m 0,0 c -0.221,0.136 -0.44,0.273 -0.66,0.409 -0.308,0.033 -0.608,0.064 -0.82,0.076 -0.158,0.009 -0.316,0.012 -0.472,0 C -2.774,0.424 -3.593,0.309 -4.386,0.18 -4.613,0.147 -4.854,0.213 -5.085,0.166 -5.34,0.115 -5.583,-0.025 -5.828,-0.091 -6.048,-0.15 -6.265,-0.202 -6.482,-0.278 l -0.656,-0.976 c 0.274,0.139 0.549,0.24 0.836,0.33 0.797,0.256 1.635,0.36 2.508,0.487 0.768,0.096 1.578,0.221 2.372,0.265 0.428,0.027 1.114,0.036 1.642,-0.021 C 0.146,-0.13 0.075,-0.063 0,0"
     style="fill:#d6d1bf;fill-opacity:1;fill-rule:nonzero;stroke:none"
     transform="matrix(0.142008,0,0,-0.15470703,9.5040676,3.4018485)"
     clip-path="url(#clipPath1253-7-3)" />
  <path
     id="path1254"
     d="M 0,0 C -0.272,0.099 -0.547,0.192 -0.82,0.29 -0.971,0.282 -1.104,0.274 -1.187,0.264 -1.707,0.218 -2.192,0.137 -2.688,0.011 l -0.561,-0.836 c 0.27,0.074 0.532,0.119 0.803,0.182 0.37,0.083 0.741,0.226 1.131,0.29 0.315,0.054 1.047,0.098 1.664,0.119 C 0.233,-0.154 0.113,-0.082 0,0"
     style="fill:#d6d1bf;fill-opacity:1;fill-rule:nonzero;stroke:none"
     transform="matrix(0.142008,0,0,-0.15470703,9.1472457,3.1512079)"
     clip-path="url(#clipPath1255-0-0)" />
  <path
     id="path1256"
     d="m 0,0 c 0.418,0.033 0.932,0.079 1.286,0.125 0.226,0.03 0.943,0.029 1.625,0.053 0.692,0.029 1.322,0.075 1.438,0.107 0.285,0.04 1.119,0.16 1.444,0.12 0.136,0.005 0.974,0.1 1.336,0.092 C 6.905,0.758 6.673,1.011 6.444,1.267 6.435,1.266 6.426,1.266 6.416,1.265 6.019,1.26 5.74,1.147 5.657,1.129 4.852,0.882 3.984,0.893 3.1,0.901 1.799,0.917 0.593,0.731 -0.575,0.594 -0.379,0.399 -0.19,0.199 0,0"
     style="fill:#d6d1bf;fill-opacity:1;fill-rule:nonzero;stroke:none"
     transform="matrix(0.142008,0,0,-0.15470703,9.267059,4.3194476)"
     clip-path="url(#clipPath1257-9-5)" />
  <path
     id="path1258"
     d="m 0,0 c 0.127,-0.088 0.25,-0.183 0.376,-0.272 0.199,0.037 0.392,0.074 0.595,0.112 0.406,0.076 0.819,0.186 1.242,0.255 0.636,0.108 1.27,0.16 1.925,0.203 C 4.707,0.33 5.273,0.312 5.853,0.323 6.297,0.333 7.489,0.301 8.15,0.326 7.989,0.477 7.829,0.629 7.666,0.777 7.294,0.771 6.501,0.787 6.392,0.798 6.004,0.842 5.625,0.945 5.241,0.953 4.397,0.966 3.568,0.928 2.743,0.857 2.104,0.813 1.468,0.743 0.857,0.634 0.767,0.618 0.676,0.576 0.686,0.579 0.464,0.589 0.337,0.598 0.209,0.571 0.095,0.548 -0.032,0.438 -0.129,0.446 -0.223,0.454 -0.362,0.401 -0.49,0.322 -0.327,0.214 -0.16,0.111 0,0"
     style="fill:#d6d1bf;fill-opacity:1;fill-rule:nonzero;stroke:none"
     transform="matrix(0.142008,0,0,-0.15470703,8.60195,3.7006196)"
     clip-path="url(#clipPath1259-6-3)" />
  <path
     id="path1260"
     d="M 0,0 C 0.777,0.111 1.568,0.178 2.352,0.273 2.563,0.298 3.052,0.225 3.259,0.241 3.692,0.271 4.127,0.285 4.556,0.304 4.868,0.319 5.175,0.282 5.482,0.322 5.808,0.36 6.128,0.398 6.45,0.436 6.58,0.445 6.969,0.528 7.201,0.58 7.093,0.698 6.981,0.813 6.873,0.93 6.575,0.882 6.174,0.833 5.999,0.823 5.616,0.799 5.238,0.903 4.844,0.899 4.375,0.896 3.894,0.879 3.412,0.839 2.859,0.796 2.03,0.893 1.476,0.849 0.993,0.809 0.511,0.821 0.035,0.746 -0.19,0.709 -0.413,0.642 -0.636,0.574 -0.421,0.386 -0.209,0.195 0,0"
     style="fill:#d6d1bf;fill-opacity:1;fill-rule:nonzero;stroke:none"
     transform="matrix(0.142008,0,0,-0.15470703,9.0942626,4.1330867)"
     clip-path="url(#clipPath1261-8-6)" />
  <path
     id="path1262"
     d="M 0,0 0.165,0.027 C 0.413,0.067 0.649,0.114 0.842,0.194 1.257,0.333 1.69,0.477 2.143,0.557 2.428,0.612 2.696,0.618 2.981,0.631 L 3.695,1.342 3.519,1.335 C 3.203,1.325 2.884,1.259 2.563,1.219 2.127,1.17 1.712,1.107 1.305,1.039 0.861,0.995 0.403,0.965 -0.066,0.949 -0.239,0.944 -0.414,0.996 -0.585,0.979 -0.631,0.974 -0.675,0.956 -0.719,0.94 -0.473,0.632 -0.231,0.319 0,0"
     style="fill:#d6d1bf;fill-opacity:1;fill-rule:nonzero;stroke:none"
     transform="matrix(0.142008,0,0,-0.15470703,9.5972527,4.7491901)"
     clip-path="url(#clipPath1263-9-9)" />
  <path
     id="path1264"
     d="m 0,0 c -0.428,0.059 -1.834,-0.026 -2.183,-0.097 -0.455,-0.06 -0.941,-0.155 -1.418,-0.212 -0.689,-0.096 -1.984,0.021 -2.671,-0.123 -0.018,-0.004 -0.04,-0.002 -0.059,-0.003 0.235,-0.26 0.465,-0.525 0.689,-0.794 0.593,0.043 1.519,0.023 1.997,0.114 0.572,0.106 1.139,0.212 1.701,0.316 0.328,0.054 1.181,0.174 1.803,0.174 L 0.417,-0.07 C 0.276,-0.042 0.138,-0.017 0,0"
     style="fill:#d6d1bf;fill-opacity:1;fill-rule:nonzero;stroke:none"
     transform="matrix(0.142008,0,0,-0.15470703,10.24045,4.3382618)"
     clip-path="url(#clipPath1265-3-4)" />
  <path
     id="path1266"
     d="M 0,0 C -0.33,0.129 -0.663,0.249 -1.003,0.35 -1.395,0.471 -1.791,0.558 -2.173,0.654 -2.519,0.736 -2.871,0.816 -3.213,0.88 -3.57,0.947 -3.92,1.015 -4.272,1.038 -4.615,1.053 -4.969,1.048 -5.308,0.975 -5.512,0.931 -5.722,0.77 -5.914,0.639 -5.936,0.624 -5.953,0.595 -5.971,0.569 c 0.08,-0.161 0.156,-0.325 0.232,-0.488 0.151,-0.04 0.296,-0.031 0.543,0.164 0.183,0.146 0.577,0.075 0.871,0.054 0.355,-0.024 0.7,-0.109 1.064,-0.158 0.434,-0.073 0.89,-0.117 1.334,-0.228 0.51,-0.126 1.012,-0.319 1.5,-0.508 0.205,-0.078 0.422,-0.164 0.634,-0.247 C 0.135,-0.562 0.068,-0.281 0,0"
     style="fill:#d6d1bf;fill-opacity:1;fill-rule:nonzero;stroke:none"
     transform="matrix(0.142008,0,0,-0.15470703,10.743997,5.3726318)"
     clip-path="url(#clipPath1267-0-8)" />
  <path
     id="path1268"
     d="m 0,0 c -0.032,0.006 -0.065,0.018 -0.098,0.022 -0.83,0.125 -1.64,0.19 -2.455,0.209 -0.234,0.008 -0.452,0.125 -0.68,0.13 C -3.485,0.37 -3.762,0.269 -4.017,0.25 -4.245,0.231 -4.47,0.212 -4.697,0.193 L -5.53,-0.636 c 0.29,0.069 0.587,0.13 0.888,0.165 0.826,0.089 1.67,0.036 2.546,-0.018 0.763,-0.068 1.601,-0.106 2.389,-0.266 C 0.312,-0.759 0.338,-0.765 0.358,-0.77 0.239,-0.513 0.12,-0.256 0,0"
     style="fill:#d6d1bf;fill-opacity:1;fill-rule:nonzero;stroke:none"
     transform="matrix(0.142008,0,0,-0.15470703,10.557469,4.8224008)"
     clip-path="url(#clipPath1269-6-1)" />
  <path
     id="path1270"
     d="M 0,0 C -0.338,0.059 -0.64,0.107 -0.784,0.124 -1.288,0.193 -1.818,0.18 -2.312,0.165 l -0.713,-0.71 c 0.273,0.008 0.546,0.016 0.826,0.024 0.39,0.02 0.772,0.079 1.158,0.059 0.251,-0.014 0.738,-0.066 1.24,-0.142 0.027,-0.005 0.052,-0.01 0.077,-0.014 C 0.183,-0.413 0.093,-0.206 0,0"
     style="fill:#d6d1bf;fill-opacity:1;fill-rule:nonzero;stroke:none"
     transform="matrix(0.142008,0,0,-0.15470703,10.450267,4.5671484)"
     clip-path="url(#clipPath1271-6-3)" />
  <path
     id="path1272"
     d="M 0,0 C -0.082,0.315 -0.166,0.629 -0.25,0.944 -0.473,1.087 -0.698,1.226 -0.935,1.353 -2.313,2.131 -3.759,2.293 -5.038,2.515 -5.182,2.541 -5.316,2.636 -5.471,2.618 -6.218,2.52 -5.831,2.097 -5.785,1.985 -5.721,1.977 -5.641,1.972 -5.567,1.954 -5.271,1.882 -4.655,1.877 -4.339,1.807 -3.923,1.725 -3.298,1.556 -2.896,1.441 -2.688,1.386 -2.057,1.118 -1.437,0.812 -0.847,0.501 -0.28,0.152 -0.173,0.099 -0.131,0.079 -0.068,0.042 0,0"
     style="fill:#d6d1bf;fill-opacity:1;fill-rule:nonzero;stroke:none"
     transform="matrix(0.142008,0,0,-0.15470703,10.90279,6.0343759)"
     clip-path="url(#clipPath1273-0-1)" />
  <path
     id="path1274"
     d="M 0,0 C -0.078,0.177 -0.148,0.357 -0.225,0.535 -0.349,0.59 -0.471,0.649 -0.604,0.685 -1.432,0.922 -2.239,1.077 -3.067,1.174 -3.702,1.26 -4.321,1.327 -4.949,1.326 -5.042,1.328 -5.14,1.303 -5.13,1.305 -5.347,1.35 -5.465,1.39 -5.592,1.393 -5.706,1.395 -5.85,1.316 -5.942,1.343 -6.118,1.388 -6.499,1.249 -6.637,1.076 c 0.11,-0.18 0.218,-0.36 0.323,-0.543 0.428,0.002 0.867,0.004 1.314,0.005 0.403,-0.008 0.828,0.024 1.253,0.005 0.644,-0.021 1.27,-0.101 1.909,-0.223 0.563,-0.104 1.129,-0.264 1.677,-0.433 0.056,-0.016 0.127,-0.039 0.203,-0.063 C 0.029,-0.117 0.013,-0.059 0,0"
     style="fill:#d6d1bf;fill-opacity:1;fill-rule:nonzero;stroke:none"
     transform="matrix(0.142008,0,0,-0.15470703,10.702117,5.1818134)"
     clip-path="url(#clipPath1275-4-9)" />
  <path
     id="path1276"
     d="M 0,0 C -0.194,0.083 -0.39,0.162 -0.598,0.228 -1.138,0.409 -1.88,0.778 -2.402,0.897 -2.877,0.995 -3.33,1.128 -3.797,1.168 -4.254,1.203 -4.718,1.132 -5.172,1.137 -5.49,1.139 -5.521,0.954 -5.58,0.808 -5.673,0.591 -5.549,0.485 -5.315,0.493 c 0.342,0.01 0.704,0.069 1.044,0.04 0.844,-0.066 1.637,-0.248 2.474,-0.443 0.202,-0.047 0.641,-0.287 0.833,-0.359 0.394,-0.142 0.782,-0.319 1.17,-0.512 C 0.136,-0.521 0.069,-0.26 0,0"
     style="fill:#d6d1bf;fill-opacity:1;fill-rule:nonzero;stroke:none"
     transform="matrix(0.142008,0,0,-0.15470703,10.805161,5.6336204)"
     clip-path="url(#clipPath1277-4-9)" />
  <path
     id="path1278"
     d="M 0,0 C -0.375,0.229 -0.748,0.444 -1.115,0.648 -1.213,0.703 -1.373,0.753 -1.383,0.824 -1.411,1.049 -1.576,0.996 -1.756,0.97 -1.895,0.927 -2.074,0.911 -2.163,0.833 -2.268,0.742 -2.382,0.56 -2.336,0.487 c 0.08,-0.126 0.266,-0.221 0.436,-0.3 0.242,-0.11 0.488,-0.222 0.734,-0.334 z"
     style="fill:#d6d1bf;fill-opacity:1;fill-rule:nonzero;stroke:none"
     transform="matrix(0.142008,0,0,-0.15470703,10.593952,6.4375238)"
     clip-path="url(#clipPath1279-4-9)" />
  <path
     id="path1280"
     d="m 0,0 c 0.083,-0.047 0.22,-0.039 0.323,-0.071 0.42,-0.136 0.87,-0.284 1.269,-0.459 0.412,-0.175 0.839,-0.349 1.237,-0.577 0.248,-0.141 0.487,-0.299 0.728,-0.463 l 0.953,0.12 c 0,0.011 0.001,0.023 0.002,0.034 L 4.405,-1.344 C 4.135,-1.162 3.84,-1.019 3.573,-0.848 3.208,-0.612 2.846,-0.387 2.488,-0.174 2.111,0.036 1.731,0.232 1.359,0.417 1.218,0.486 1.106,0.595 0.96,0.649 0.836,0.695 0.681,0.687 0.542,0.708 0.368,0.733 0.202,0.783 0.026,0.784 -0.185,0.784 -0.271,0.698 -0.277,0.565 -0.282,0.329 -0.243,0.138 0,0"
     style="fill:#d6d1bf;fill-opacity:1;fill-rule:nonzero;stroke:none"
     transform="matrix(0.142008,0,0,-0.15470703,10.271095,6.1696638)"
     clip-path="url(#clipPath1281-4-4)" />
  <path
     id="path1282"
     d="M 0,0 C -0.145,0.097 -0.271,0.179 -0.352,0.227 -0.77,0.486 -1.207,0.699 -1.638,0.898 -2.232,1.202 -3.32,1.803 -3.976,1.891 -4.251,1.936 -4.525,2.394 -4.966,1.925 -5.027,1.843 -5.156,1.736 -5.138,1.686 c 0.056,-0.151 0.12,-0.347 0.271,-0.406 0.24,-0.095 0.561,-0.082 0.837,-0.152 0.522,-0.112 1.393,-0.62 1.888,-0.831 0.531,-0.221 1.049,-0.476 1.534,-0.767 0.127,-0.072 0.337,-0.198 0.575,-0.344 0.02,0.26 0.044,0.52 0.066,0.78 C 0.021,-0.023 0.011,-0.012 0,0"
     style="fill:#d6d1bf;fill-opacity:1;fill-rule:nonzero;stroke:none"
     transform="matrix(0.142008,0,0,-0.15470703,10.924972,6.1533457)"
     clip-path="url(#clipPath1283-8-7)" />
  <path
     id="path1284"
     d="m 0,0 c 0.235,0.015 0.511,-0.275 0.736,-0.464 0.273,-0.225 0.502,-0.495 0.768,-0.745 0.321,-0.31 0.71,-0.61 0.992,-0.951 0.17,-0.198 0.327,-0.409 0.483,-0.625 0.05,0.306 0.097,0.613 0.139,0.921 -0.142,0.154 -0.289,0.306 -0.425,0.458 -0.24,0.262 -0.474,0.52 -0.714,0.782 C 1.724,-0.364 1.5,-0.105 1.202,0.12 0.927,0.333 0.64,0.538 0.32,0.68 0.128,0.764 -0.137,0.755 -0.369,0.76 -0.451,0.762 -0.565,0.696 -0.609,0.638 -0.666,0.564 -0.666,0.466 -0.689,0.378 -0.533,0.14 -0.446,-0.025 0,0"
     style="fill:#d6d1bf;fill-opacity:1;fill-rule:nonzero;stroke:none"
     transform="matrix(0.142008,0,0,-0.15470703,10.393975,6.9659291)"
     clip-path="url(#clipPath1285-0-7)" />
  <path
     id="path1286"
     d="M 0,0 C 0.111,-0.096 0.229,-0.195 0.343,-0.293 0.367,-0.007 0.396,0.278 0.42,0.564 0.301,0.66 0.186,0.759 0.062,0.853 -0.126,0.998 -0.238,1.221 -0.423,1.363 -0.628,1.52 -0.893,1.609 -1.104,1.752 -1.298,1.88 -1.47,2.012 -1.672,2.133 L -2.838,1.986 C -2.555,1.855 -2.3,1.712 -2.042,1.55 -1.354,1.102 -0.635,0.561 0,0"
     style="fill:#d6d1bf;fill-opacity:1;fill-rule:nonzero;stroke:none"
     transform="matrix(0.142008,0,0,-0.15470703,10.831359,6.7675606)"
     clip-path="url(#clipPath1287-9-0)" />
  <path
     id="path1288"
     d="M 0,0 C 0.273,-0.312 0.698,-0.796 0.976,-1.113 1.119,-1.274 1.501,-1.852 1.854,-2.447 1.937,-2.594 2.017,-2.741 2.09,-2.881 2.184,-2.563 2.271,-2.243 2.353,-1.925 2.021,-1.377 1.657,-0.886 1.272,-0.454 0.798,0.07 0.262,0.542 -0.21,0.999 -0.319,1.104 -0.362,1.259 -0.5,1.332 -1.16,1.677 -1.114,1.098 -1.119,0.975 -1.07,0.931 -1.005,0.881 -0.953,0.823 -0.743,0.593 -0.228,0.238 0,0"
     style="fill:#d6d1bf;fill-opacity:1;fill-rule:nonzero;stroke:none"
     transform="matrix(0.142008,0,0,-0.15470703,10.406729,7.4956283)"
     clip-path="url(#clipPath1289-7-4)" />
  <path
     id="path1290"
     d="M 0,0 C 0.324,-0.248 0.689,-0.474 1.024,-0.738 1.532,-1.134 2.025,-1.562 2.46,-2.025 2.464,-2.029 2.467,-2.034 2.471,-2.038 2.477,-1.986 2.484,-1.934 2.49,-1.882 2.515,-1.655 2.531,-1.428 2.553,-1.2 2.35,-1.004 2.146,-0.806 1.943,-0.617 1.46,-0.178 1.035,0.243 0.515,0.625 0.438,0.682 0.345,0.721 0.354,0.716 0.201,0.886 0.126,0.992 0.023,1.073 -0.069,1.145 -0.236,1.168 -0.294,1.249 -0.405,1.408 -0.828,1.552 -1.033,1.469 -1.354,1.341 -1.407,1.068 -1.113,0.843 -0.751,0.569 -0.379,0.287 0,0"
     style="fill:#d6d1bf;fill-opacity:1;fill-rule:nonzero;stroke:none"
     transform="matrix(0.142008,0,0,-0.15470703,10.506305,6.7594076)"
     clip-path="url(#clipPath1291-7-8)" />
  <path
     id="path1292"
     d="M 0,0 C 0.302,-0.189 0.624,-0.347 0.879,-0.565 1.501,-1.1 2.086,-1.704 2.684,-2.336 2.842,-2.492 3.026,-2.926 3.154,-3.094 3.17,-3.115 3.183,-3.141 3.198,-3.162 3.26,-2.892 3.319,-2.621 3.372,-2.349 3.119,-1.978 2.847,-1.578 2.606,-1.32 2.278,-0.972 2.003,-0.605 1.639,-0.306 1.274,-0.014 0.829,0.194 0.466,0.462 0.21,0.648 0.075,0.51 -0.06,0.421 -0.255,0.292 -0.201,0.129 0,0"
     style="fill:#d6d1bf;fill-opacity:1;fill-rule:nonzero;stroke:none"
     transform="matrix(0.142008,0,0,-0.15470703,10.313116,7.1816825)"
     clip-path="url(#clipPath1293-9-0)" />
  <path
     id="path1294"
     d="m 0,0 c -0.188,0.39 -0.384,0.768 -0.58,1.133 -0.053,0.097 -0.155,0.221 -0.132,0.291 0.083,0.218 -0.083,0.26 -0.249,0.333 -0.141,0.037 -0.302,0.12 -0.415,0.097 -0.134,-0.025 -0.316,-0.13 -0.323,-0.212 -0.003,-0.148 0.1,-0.326 0.2,-0.482 0.142,-0.22 0.287,-0.443 0.432,-0.667 z"
     style="fill:#d6d1bf;fill-opacity:1;fill-rule:nonzero;stroke:none"
     transform="matrix(0.142008,0,0,-0.15470703,10.319082,8.2609944)"
     clip-path="url(#clipPath1295-5-6)" />
  <path
     id="path1296"
     d="m 0,0 c 0.281,-0.349 0.555,-0.711 0.822,-1.086 0.277,-0.382 0.539,-0.752 0.747,-1.152 0.13,-0.249 0.245,-0.508 0.357,-0.772 l 0.257,-0.119 c 0.093,0.158 0.189,0.315 0.281,0.473 -0.042,0.081 -0.086,0.161 -0.122,0.242 -0.35,0.776 -0.795,1.555 -1.201,2.27 C 1.062,-0.007 1.028,0.147 0.937,0.274 0.859,0.382 0.725,0.461 0.62,0.555 0.488,0.672 0.382,0.806 0.229,0.905 0.05,1.023 -0.062,0.996 -0.143,0.883 -0.28,0.681 -0.355,0.491 -0.23,0.238 -0.187,0.151 -0.068,0.085 0,0"
     style="fill:#d6d1bf;fill-opacity:1;fill-rule:nonzero;stroke:none"
     transform="matrix(0.142008,0,0,-0.15470703,10.212304,7.8792234)"
     clip-path="url(#clipPath1297-5-4)" />
  <path
     id="path1298"
     d="m 0,0 c 0.376,-0.386 0.826,-1.299 1.122,-1.741 0.271,-0.404 0.524,-0.829 0.773,-1.264 0.144,0.273 0.266,0.557 0.374,0.848 -0.126,0.22 -0.258,0.438 -0.391,0.65 C 1.549,-0.931 0.959,0.18 0.463,0.621 0.256,0.812 0.28,1.358 -0.347,1.206 -0.442,1.17 -0.608,1.15 -0.62,1.097 -0.657,0.936 -0.71,0.73 -0.616,0.596 -0.468,0.379 -0.192,0.212 0,0"
     style="fill:#d6d1bf;fill-opacity:1;fill-rule:nonzero;stroke:none"
     transform="matrix(0.142008,0,0,-0.15470703,10.345155,7.7261725)"
     clip-path="url(#clipPath1299-0-4)" />
  <path
     id="path1300"
     d="m 0,0 c 0.203,-0.124 0.294,-0.515 0.37,-0.78 0.101,-0.327 0.14,-0.668 0.214,-1.021 0.1,-0.446 0.2,-0.881 0.225,-1.329 0.014,-0.318 0.002,-0.655 -0.02,-0.991 0.206,0.261 0.414,0.519 0.628,0.775 0.015,0.024 0.029,0.047 0.045,0.071 -0.013,0.2 -0.012,0.401 -0.039,0.607 -0.04,0.357 -0.074,0.705 -0.13,1.041 C 1.242,-1.284 1.176,-0.935 1.052,-0.588 0.94,-0.265 0.812,0.054 0.622,0.339 0.507,0.51 0.282,0.648 0.091,0.781 0.023,0.827 -0.106,0.842 -0.174,0.823 -0.259,0.8 -0.31,0.728 -0.375,0.676 -0.37,0.413 -0.379,0.236 0,0"
     style="fill:#d6d1bf;fill-opacity:1;fill-rule:nonzero;stroke:none"
     transform="matrix(0.142008,0,0,-0.15470703,9.8998585,8.572082)"
     clip-path="url(#clipPath1301-8-8)" />
  <path
     id="path1302"
     d="M 0,0 C 0.166,0.262 0.337,0.521 0.5,0.785 0.48,0.941 0.469,1.099 0.417,1.244 0.336,1.479 0.146,1.703 0.035,1.938 -0.064,2.151 -0.162,2.359 -0.261,2.57 L -1.328,3.063 C -1.162,2.805 -1.002,2.539 -0.862,2.262 -0.508,1.547 -0.269,0.801 0,0"
     style="fill:#d6d1bf;fill-opacity:1;fill-rule:nonzero;stroke:none"
     transform="matrix(0.142008,0,0,-0.15470703,10.356117,8.658654)"
     clip-path="url(#clipPath1303-5-8)" />
  <path
     id="path1304"
     d="M 0,0 C -0.108,0.216 -0.205,0.308 -0.289,0.342 -0.4,0.239 -0.511,0.137 -0.621,0.034 c 0.006,-0.029 0.014,-0.055 0.016,-0.085 0.03,-0.286 0.206,-0.867 0.23,-1.184 0.048,-0.416 0.027,-1.031 0.023,-1.46 0.003,-0.216 -0.103,-0.897 -0.291,-1.541 -0.098,-0.38 -0.215,-0.743 -0.305,-1.008 0.301,0.166 0.6,0.332 0.902,0.496 0.014,0.04 0.031,0.081 0.045,0.122 0.238,0.759 0.296,1.51 0.286,2.199 C 0.251,-1.707 0.156,-1.052 0.05,-0.428 0.021,-0.28 0.068,-0.141 0,0"
     style="fill:#d6d1bf;fill-opacity:1;fill-rule:nonzero;stroke:none"
     transform="matrix(0.142008,0,0,-0.15470703,9.701957,8.7660696)"
     clip-path="url(#clipPath1305-4-9)" />
  <path
     id="path1306"
     d="m 0,0 c 0.166,-0.396 0.327,-0.75 0.466,-1.153 0.155,-0.484 0.316,-1.012 0.413,-1.533 0.168,0.258 0.332,0.517 0.498,0.775 C 1.351,-1.796 1.325,-1.679 1.299,-1.565 1.169,-0.959 0.963,-0.336 0.751,0.243 0.719,0.33 0.661,0.412 0.666,0.403 0.631,0.622 0.626,0.747 0.583,0.867 0.545,0.974 0.417,1.08 0.413,1.176 0.397,1.37 0.102,1.724 -0.112,1.76 -0.441,1.812 -0.622,1.609 -0.503,1.284 -0.339,0.866 -0.171,0.437 0,0"
     style="fill:#d6d1bf;fill-opacity:1;fill-rule:nonzero;stroke:none"
     transform="matrix(0.142008,0,0,-0.15470703,10.092479,8.4794568)"
     clip-path="url(#clipPath1307-1-3)" />
  <path
     id="path1308"
     d="M 0,0 C -0.045,0.479 -0.059,0.939 -0.171,1.38 -0.274,1.799 -0.53,2.239 -0.681,2.649 -0.789,2.938 -0.968,2.918 -1.119,2.937 -1.154,2.941 -1.178,2.934 -1.203,2.929 -1.242,2.894 -1.28,2.857 -1.318,2.822 -1.33,2.764 -1.32,2.69 -1.286,2.605 c 0.126,-0.304 0.299,-0.62 0.381,-0.941 0.097,-0.389 0.181,-0.803 0.229,-1.211 0.042,-0.4 0.068,-0.815 0.083,-1.243 0.012,-0.212 -0.116,-0.688 -0.146,-0.887 -0.023,-0.215 -0.056,-0.431 -0.098,-0.651 0.216,0.117 0.433,0.234 0.648,0.35 0.008,0.013 0.016,0.027 0.025,0.04 l 0.003,0.017 c 0.001,0.019 0.005,0.041 0.006,0.06 -0.002,0.049 0,0.098 0.016,0.149 C -0.078,-1.157 0.05,-0.483 0,0"
     style="fill:#d6d1bf;fill-opacity:1;fill-rule:nonzero;stroke:none"
     transform="matrix(0.142008,0,0,-0.15470703,9.9180212,9.0794107)"
     clip-path="url(#clipPath1309-2-7)" />
  <path
     id="path1310"
     d="m 0,0 c -0.008,0.038 -0.021,0.066 -0.032,0.096 -0.245,-0.23 -0.491,-0.459 -0.737,-0.689 -0.047,-0.401 -0.101,-0.81 -0.192,-1.212 -0.095,-0.448 -0.181,-0.907 -0.319,-1.35 -0.09,-0.273 -0.196,-0.539 -0.302,-0.806 l 0.363,-0.938 0.062,0.164 c 0.109,0.299 0.185,0.611 0.295,0.912 0.304,0.816 0.588,1.631 0.797,2.434 0.039,0.153 0.13,0.279 0.146,0.438 0.017,0.133 -0.024,0.284 -0.036,0.426 C 0.03,-0.349 0.039,-0.174 0,0"
     style="fill:#d6d1bf;fill-opacity:1;fill-rule:nonzero;stroke:none"
     transform="matrix(0.142008,0,0,-0.15470703,9.3979733,8.9979744)"
     clip-path="url(#clipPath1311-5-3)" />
  <path
     id="path1312"
     d="M 0,0 C 0.158,0.435 0.276,0.877 0.382,1.311 0.543,1.988 0.923,3.123 0.82,3.791 0.794,4.07 1.138,4.423 0.598,4.753 0.509,4.796 0.38,4.898 0.341,4.871 0.222,4.789 0.067,4.688 0.053,4.53 0.032,4.275 0.104,3.977 0.099,3.7 0.098,3.2 -0.185,2.194 -0.312,1.689 -0.424,1.132 -0.575,0.575 -0.752,0.03 -0.792,-0.097 -0.859,-0.306 -0.936,-0.535 -0.625,-0.354 -0.313,-0.176 0,0"
     style="fill:#d6d1bf;fill-opacity:1;fill-rule:nonzero;stroke:none"
     transform="matrix(0.142008,0,0,-0.15470703,9.4619044,9.6414293)"
     clip-path="url(#clipPath1313-6-5)" />
  <path
     id="path1314"
     d="m 0,0 c -0.02,-0.062 -0.032,-0.125 -0.055,-0.187 -0.302,-0.828 -0.663,-1.635 -0.937,-2.471 -0.202,-0.621 -0.489,-1.373 -0.627,-2.039 0.197,0.097 0.395,0.193 0.592,0.292 0.104,0.078 0.217,0.146 0.324,0.222 0.149,0.588 0.33,1.174 0.536,1.765 0.081,0.219 0.266,0.391 0.353,0.609 0.096,0.245 0.117,0.528 0.207,0.776 0.083,0.222 0.164,0.441 0.247,0.662 L 0.364,0.339 C 0.243,0.227 0.122,0.112 0,0"
     style="fill:#d6d1bf;fill-opacity:1;fill-rule:nonzero;stroke:none"
     transform="matrix(0.142008,0,0,-0.15470703,9.0163258,9.3667635)"
     clip-path="url(#clipPath1315-5-3)" />
  <path
     id="path1316"
     d="m 0,0 c -0.028,-0.064 -0.064,-0.127 -0.088,-0.193 -0.108,-0.328 -0.198,-0.652 -0.271,-0.971 -0.081,-0.284 -0.134,-1.023 -0.083,-1.318 0.015,-0.111 0.055,-0.224 0.127,-0.316 0.04,-0.051 0.09,-0.091 0.144,-0.12 0.094,0.046 0.188,0.093 0.28,0.14 0.041,0.165 0.036,0.399 0.053,0.504 0.023,0.228 0.017,0.595 0.067,0.829 0.11,0.566 0.313,1.084 0.496,1.644 C 0.789,0.405 0.944,0.703 1.114,1.015 0.743,0.676 0.375,0.334 0,0"
     style="fill:#d6d1bf;fill-opacity:1;fill-rule:nonzero;stroke:none"
     transform="matrix(0.142008,0,0,-0.15470703,8.6529881,9.7272477)"
     clip-path="url(#clipPath1317-3-0)" />
  <path
     id="path1318"
     d="M 0,0 C -0.075,-16.407 13.044,-31.2 31.12,-31.447 48.997,-31.691 63.118,-17.83 63.173,0.024 63.228,17.663 49.443,31.457 32.03,31.725 13.609,32.01 -0.137,16.991 0,0 M 31.549,33.303 C 50.067,33.216 64.436,18.834 64.743,0.812 65.072,-18.494 50.125,-32.634 32.395,-32.996 13.111,-33.391 -1.856,-17.83 -1.499,0.729 -1.144,19.176 13.935,33.154 31.549,33.303"
     style="fill:#d6d1bf;fill-opacity:1;fill-rule:nonzero;stroke:none"
     transform="matrix(0.142008,0,0,-0.15470703,3.2286652,6.6787294)"
     clip-path="url(#clipPath1319-7-0)" />
  <path
     id="path1320"
     d="m 0,0 c -0.079,3.809 -0.63,6.946 -1.955,9.896 -3.772,8.397 -9.976,13.353 -19.455,13.651 -4.084,0.128 -7.755,-1.092 -11.014,-3.45 -6.428,-4.65 -9.249,-11.206 -9.284,-18.937 -0.024,-5.393 1.55,-10.43 4.953,-14.727 4.659,-5.885 10.587,-9.037 18.292,-8.315 4.482,0.42 8.301,2.266 11.466,5.355 C -2.218,-11.864 -0.045,-6.059 0,0 M 1.604,1.299 C 1.433,-5.699 -0.232,-11.2 -4.235,-15.844 c -4.421,-5.131 -10.024,-7.848 -16.819,-7.72 -4.514,0.085 -8.622,1.626 -12.204,4.409 -5.898,4.582 -9.112,10.666 -9.821,18.058 -0.691,7.195 1.38,13.551 6.121,19.01 5.899,6.793 15.917,9.211 24.328,5.29 C -5.252,19.765 -0.944,13.879 0.908,6.097 1.353,4.228 1.468,2.28 1.604,1.299"
     style="fill:#d6d1bf;fill-opacity:1;fill-rule:nonzero;stroke:none"
     transform="matrix(0.142008,0,0,-0.15470703,10.695174,6.6518393)"
     clip-path="url(#clipPath1321-7-0)" />
  <path
     id="path1322"
     d="m 0,0 c -0.061,-0.809 -0.257,-1.646 -0.822,-2.256 -0.594,-0.642 -1.376,-1.049 -1.919,-1.748 -0.989,-1.277 -1.232,-2.931 -1.307,-4.5 -0.093,-1.952 -0.071,-3.915 -0.078,-5.87 -0.015,-4.128 0.054,-8.259 0.322,-12.38 0.301,-4.618 0.857,-9.222 1.803,-13.752 0.187,-1.082 0.274,-2.161 0.333,-3.256 0.064,-1.2 0.286,-2.395 0.319,-3.593 0.035,-1.203 -0.426,-2.145 -1.594,-2.564 -0.479,-0.172 -0.986,-0.261 -1.492,-0.302 -0.613,-0.05 -1.362,-0.128 -1.948,0.097 -1.134,0.438 -1.603,2.003 -1.753,3.091 -0.175,1.277 -0.01,2.59 0.212,3.85 0.51,2.888 1.106,5.752 1.524,8.656 0.845,5.889 1.303,11.83 1.348,17.778 0.023,3.012 -0.055,6.026 -0.245,9.032 -0.083,1.313 -0.22,2.677 -0.998,3.784 -0.608,0.866 -1.557,1.484 -2.05,2.428 -0.347,0.664 -0.235,1.658 -0.264,2.39 -0.034,0.816 -0.052,1.632 -0.057,2.449 -0.01,1.666 0.039,3.333 0.145,4.995 0.086,1.353 0.224,2.7 0.388,4.045 0.037,-1.212 0.073,-2.425 0.111,-3.637 0.049,-1.653 0.099,-3.305 0.149,-4.958 0.019,-0.619 -0.01,-1.257 0.287,-1.821 0.266,-0.503 0.774,-0.816 1.342,-0.637 0.264,0.083 0.433,0.309 0.444,0.584 0.084,2.094 0.168,4.188 0.251,6.283 0.164,-2.11 0.329,-4.221 0.493,-6.331 0.028,-0.357 0.369,-0.731 0.766,-0.584 1.218,0.453 1.065,1.905 1.097,2.969 0.032,1.085 0.063,2.17 0.095,3.255 0.105,-1.266 0.21,-2.532 0.315,-3.798 0.039,-0.466 0.077,-0.931 0.116,-1.396 0.024,-0.291 0.005,-0.682 0.235,-0.889 0.246,-0.221 0.611,-0.238 0.856,0 0.347,0.337 0.349,1.135 0.426,1.599 0.08,0.489 0.147,0.981 0.195,1.474 0.084,0.848 0.097,1.699 0.094,2.55 -0.007,1.71 0.025,3.413 0.099,5.118 0.259,-2.09 0.456,-4.187 0.59,-6.289 C -0.048,3.935 0.146,1.934 0,0 m -6.516,2.486 c 0.049,-0.015 0.031,-0.068 0,0 m 7.624,2.193 c -0.25,4.704 -0.809,9.39 -1.657,14.024 -0.125,0.681 -1.19,0.507 -1.188,-0.161 0.008,-2.645 0.003,-5.29 0.008,-7.93 0.004,-1.932 0.205,-3.917 -0.305,-5.764 -0.689,3.712 -0.578,7.625 -0.578,11.384 -0.057,0.68 -0.114,1.36 -0.169,2.04 -0.065,0.768 -1.188,0.79 -1.211,0 C -4.05,16.314 -3.847,14.418 -3.887,12.46 -3.937,10.091 -3.91,7.754 -4.067,5.39 -4.098,4.938 -4.132,4.47 -4.348,4.072 -4.607,5.096 -4.496,6.11 -4.562,7.15 c -0.081,1.274 -0.137,2.55 -0.191,3.826 -0.105,2.495 -0.191,4.993 -0.385,7.483 -0.06,0.771 -1.178,0.787 -1.211,0 0,-4.68 0.227,-9.523 -0.232,-14.165 -0.014,-0.138 -0.082,-0.32 -0.219,-0.295 -0.314,3.144 -0.414,6.332 -0.421,9.492 -0.004,1.44 0.021,2.879 0.075,4.318 0.018,0.476 0.202,1.099 -0.342,1.339 C -7.825,19.297 -8.22,19.15 -8.3,18.773 -9.616,12.517 -10.125,6.094 -9.763,-0.29 c 0.037,-0.656 0.06,-1.234 0.373,-1.826 0.283,-0.531 0.7,-0.98 1.119,-1.405 0.357,-0.362 0.733,-0.715 1.014,-1.143 0.423,-0.645 0.597,-1.395 0.68,-2.153 0.342,-3.146 0.331,-6.378 0.317,-9.539 -0.029,-6.362 -0.518,-12.726 -1.481,-19.015 -0.238,-1.553 -0.503,-3.103 -0.797,-4.647 -0.266,-1.392 -0.58,-2.776 -0.756,-4.184 -0.167,-1.336 -0.193,-2.719 0.177,-4.025 0.34,-1.198 1.033,-2.509 2.248,-2.998 1.193,-0.482 2.915,-0.29 4.116,0.096 1.263,0.404 2.274,1.296 2.531,2.639 0.271,1.42 -0.129,2.917 -0.215,4.343 -0.08,1.332 -0.17,2.645 -0.397,3.962 -1.691,8.098 -2.079,16.389 -2.084,24.641 -10e-4,2.041 0.018,4.082 0.053,6.122 0.027,1.532 0.068,3.264 0.989,4.565 0.508,0.718 1.316,1.112 1.91,1.745 0.566,0.603 0.905,1.37 1.058,2.177 0.343,1.817 0.113,3.782 0.016,5.614"
     style="fill:#d6d1bf;fill-opacity:1;fill-rule:nonzero;stroke:none"
     transform="matrix(0.142008,0,0,-0.15470703,2.6065563,4.7553951)"
     clip-path="url(#clipPath1323-0-6)" />
  <path
     id="path1324"
     d="M 0,0 C 1.997,-1.357 2.495,-3.922 2.539,-6.176 2.592,-8.895 2.39,-11.637 2.231,-14.349 1.914,-19.771 1.415,-25.182 0.734,-30.571 c -0.241,-1.902 -0.797,-4.473 0.904,-5.9 0.836,-0.702 1.928,-0.855 2.984,-0.883 1.065,-0.029 2.234,-0.031 3.017,0.811 0.636,0.684 0.837,1.641 0.906,2.544 0.076,0.987 0.041,1.998 0.013,2.985 -0.065,2.264 -0.598,4.446 -0.854,6.686 -1.235,10.846 -1.036,21.786 -0.689,32.677 0.172,5.431 0.382,10.862 0.474,16.297 0.046,2.779 0.062,5.56 0.025,8.34 -0.012,0.896 0.05,2.028 -0.696,2.68 C 5.933,36.44 4.939,35.681 4.446,34.879 1.831,30.632 0.999,25.408 0.336,20.548 -0.396,15.182 -0.676,9.758 -0.477,4.344 c 0.049,-1.306 0.125,-2.612 0.228,-3.916 0.06,-0.771 1.27,-0.778 1.21,0 -0.402,5.151 -0.386,10.33 0.063,15.477 0.223,2.552 0.551,5.093 0.988,7.617 0.399,2.308 0.89,4.611 1.667,6.825 0.398,1.136 0.876,2.242 1.455,3.298 0.123,0.225 0.489,1.128 0.813,1.124 C 6.228,34.764 6.275,34.104 6.288,33.903 6.364,32.678 6.322,31.434 6.324,30.207 6.326,28.883 6.318,27.559 6.302,26.235 6.238,21.033 6.052,15.833 5.879,10.634 5.535,0.267 5.243,-10.132 6.115,-20.483 c 0.108,-1.283 0.234,-2.564 0.379,-3.845 0.143,-1.249 0.377,-2.464 0.579,-3.703 0.297,-1.829 0.335,-3.702 0.282,-5.552 -0.021,-0.781 -0.104,-1.875 -0.844,-2.335 -0.417,-0.259 -0.948,-0.234 -1.419,-0.233 -0.519,0.002 -1.049,0.003 -1.559,0.109 -2.311,0.475 -1.907,3.002 -1.678,4.782 0.667,5.156 1.168,10.334 1.501,15.522 0.165,2.575 0.291,5.155 0.372,7.734 0.073,2.348 0.038,4.815 -1.155,6.915 C 2.087,-0.231 1.426,0.492 0.61,1.045 -0.035,1.484 -0.642,0.436 0,0"
     style="fill:#d6d1bf;fill-opacity:1;fill-rule:nonzero;stroke:none"
     transform="matrix(0.142008,0,0,-0.15470703,12.739325,6.5964737)"
     clip-path="url(#clipPath1325-1-5)" />
</svg>
