<?xml version="1.0" encoding="UTF-8" standalone="no"?>
<svg
   version="1.1"
   id="Layer_1"
   x="0px"
   y="0px"
   viewBox="0 0 49 52.000001"
   xml:space="preserve"
   sodipodi:docname="drinkprueba.svg"
   width="49"
   height="52"
   inkscape:version="1.4.2 (ebf0e940, 2025-05-08)"
   xmlns:inkscape="http://www.inkscape.org/namespaces/inkscape"
   xmlns:sodipodi="http://sodipodi.sourceforge.net/DTD/sodipodi-0.dtd"
   xmlns="http://www.w3.org/2000/svg"
   xmlns:svg="http://www.w3.org/2000/svg"><defs
   id="defs1" /><sodipodi:namedview
   id="namedview1"
   pagecolor="#ffffff"
   bordercolor="#000000"
   borderopacity="0.25"
   inkscape:showpageshadow="2"
   inkscape:pageopacity="0.0"
   inkscape:pagecheckerboard="0"
   inkscape:deskcolor="#d1d1d1"
   inkscape:zoom="2.73"
   inkscape:cx="57.142857"
   inkscape:cy="59.157509"
   inkscape:window-width="968"
   inkscape:window-height="580"
   inkscape:window-x="0"
   inkscape:window-y="38"
   inkscape:window-maximized="0"
   inkscape:current-layer="Layer_1" />
  <style
   type="text/css"
   id="style1">
	.st0{fill:#D6D1BF;}
</style>

<g
   id="g1"
   transform="matrix(0.39847979,0,0,0.37430998,1.1189194,5.3696703)">
	<path
   class="st0"
   d="m 94.8,15.36 c -1.18,-0.34 -1.86,-1.56 -1.53,-2.74 0.34,-1.18 1.56,-1.86 2.74,-1.53 3.15,0.9 5.79,2.39 7.82,4.59 2.03,2.22 3.39,5.1 3.94,8.79 0.18,1.21 -0.66,2.34 -1.88,2.52 -1.21,0.18 -2.34,-0.66 -2.52,-1.88 -0.41,-2.76 -1.38,-4.87 -2.81,-6.43 -1.43,-1.56 -3.39,-2.64 -5.76,-3.32 z M 37.87,67.17 0.61,28.09 C -0.23,27.2 -0.2,25.8 0.69,24.96 1.12,24.55 1.67,24.35 2.22,24.35 V 24.34 H 16.75 L 2.27,9.86 C 1.4,8.99 1.4,7.59 2.27,6.72 3.14,5.85 4.54,5.85 5.41,6.72 l 17.62,17.62 h 42.2 C 65.69,17.86 68.47,12.03 72.75,7.7 77.44,2.94 83.92,0 91.08,0 c 7.16,0 13.64,2.94 18.34,7.7 4.68,4.75 7.58,11.3 7.58,18.53 0,7.23 -2.9,13.78 -7.58,18.53 -4.7,4.76 -11.18,7.7 -18.34,7.7 -3.19,0 -6.25,-0.59 -9.09,-1.66 -2.33,-0.88 -4.51,-2.1 -6.48,-3.6 L 56,67.18 v 38.38 l 14.94,13.45 c 0.91,0.82 0.98,2.22 0.16,3.13 -0.44,0.49 -1.04,0.73 -1.65,0.73 v 0 H 24.77 c -1.23,0 -2.22,-0.99 -2.22,-2.22 0,-0.7 0.32,-1.32 0.82,-1.73 l 14.5,-13.36 V 67.17 Z M 69.68,24.34 h 22.88 c 1.23,0 2.22,0.99 2.22,2.22 0,0.66 -0.29,1.26 -0.75,1.67 L 78.64,44 c 1.5,1.08 3.15,1.98 4.92,2.65 2.33,0.88 4.87,1.37 7.52,1.37 5.93,0 11.3,-2.43 15.18,-6.36 3.89,-3.94 6.3,-9.39 6.3,-15.42 0,-6.03 -2.41,-11.48 -6.3,-15.42 -3.88,-3.93 -9.25,-6.36 -15.18,-6.36 -5.93,0 -11.3,2.43 -15.18,6.36 -3.48,3.51 -5.77,8.24 -6.22,13.52 z m -62.28,4.44 6.82,7.15 c 0.14,-0.03 0.29,-0.05 0.45,-0.05 h 64.77 c 0.28,0 0.54,0.05 0.79,0.14 l 7.08,-7.25 H 7.4 Z m 11.01,11.55 23.18,24.31 c 0.45,0.41 0.73,0.99 0.73,1.65 v 40.26 0 c 0,0.6 -0.24,1.2 -0.72,1.63 L 30.46,118.44 H 63.68 L 52.39,108.28 c -0.5,-0.41 -0.83,-1.03 -0.83,-1.73 V 66.28 h 0.01 c 0,-0.56 0.21,-1.11 0.63,-1.55 L 76.03,40.32 H 18.41 Z"
   id="path1"
   style="fill:#d6d1bf" />
  </g></svg>
